<svg width="50" height="50" viewBox="0 0 50 50" fill="none" xmlns="http://www.w3.org/2000/svg">
<g clip-path="url(#clip0_1_100)">
<path d="M48.9319 23.6279L25.8055 0.565417C25.0477 -0.189756 23.821 -0.188486 23.0646 0.569323C22.3087 1.32704 22.3106 2.55447 23.0685 3.31023L43 23.1867H3.60128C2.71692 23.1867 2 23.9037 2 24.788C2 25.6657 2.70646 26.3798 3.58404 26.3892L43 26.8134L23.0677 46.6898C22.31 47.4457 22.308 48.6724 23.0638 49.4302C23.443 49.81 23.9397 50 24.4365 50C24.932 50 25.4268 49.8113 25.8054 49.4341L48.9319 26.3722C49.2969 26.0091 49.5017 25.5149 49.5017 25.0001C49.5017 24.4852 49.2963 23.9917 48.9319 23.6279Z" fill="white"/>
</g>
<defs>
<clipPath id="clip0_1_100">
<rect width="50" height="50" fill="white"/>
</clipPath>
</defs>
</svg>
