<svg width="50" height="50" viewBox="0 0 50 50" fill="none" xmlns="http://www.w3.org/2000/svg">
<g clip-path="url(#clip0_1_249)">
<path d="M12.068 23.6279L35.1945 0.565417C35.9522 -0.189756 37.179 -0.188486 37.9354 0.569323C38.6913 1.32704 38.6893 2.55447 37.9315 3.31023L16.1816 25.0001L37.9323 46.6898C38.69 47.4457 38.692 48.6724 37.9362 49.4302C37.557 49.81 37.0602 50 36.5635 50C36.0679 50 35.5731 49.8113 35.1946 49.4341L12.068 26.3722C11.7031 26.0091 11.4983 25.5149 11.4983 25.0001C11.4983 24.4852 11.7037 23.9917 12.068 23.6279Z" fill="white"/>
</g>
<defs>
<clipPath id="clip0_1_249">
<rect width="50" height="50" fill="white" transform="matrix(-1 0 0 1 50 0)"/>
</clipPath>
</defs>
</svg>
