<svg width="50" height="50" viewBox="0 0 50 50" fill="none" xmlns="http://www.w3.org/2000/svg">
<g clip-path="url(#clip0_1_104)">
<path d="M1.06807 23.6279L24.1945 0.565417C24.9523 -0.189756 26.179 -0.188486 26.9354 0.569323C27.6913 1.32704 27.6894 2.55447 26.9315 3.31023L7 23.1867H46.3987C47.2831 23.1867 48 23.9037 48 24.788C48 25.6657 47.2935 26.3798 46.416 26.3892L7 26.8134L26.9323 46.6898C27.69 47.4457 27.692 48.6724 26.9362 49.4302C26.557 49.81 26.0603 50 25.5635 50C25.068 50 24.5732 49.8113 24.1946 49.4341L1.06807 26.3722C0.703133 26.0091 0.498348 25.5149 0.498348 25.0001C0.498348 24.4852 0.70372 23.9917 1.06807 23.6279Z" fill="white"/>
</g>
<defs>
<clipPath id="clip0_1_104">
<rect width="50" height="50" fill="white" transform="matrix(-1 0 0 1 50 0)"/>
</clipPath>
</defs>
</svg>
