<svg width="75" height="75" viewBox="0 0 75 75" fill="none" xmlns="http://www.w3.org/2000/svg">
<path d="M73.9014 68.0669H69.3765V50.9268C69.3765 50.32 68.8846 49.8281 68.2778 49.8281C67.6711 49.8281 67.1792 50.32 67.1792 50.9268V68.0669H57.5391V30.312H67.1792V55.7998C67.1792 56.4065 67.6711 56.8984 68.2778 56.8984C68.8846 56.8984 69.3765 56.4065 69.3765 55.7998V29.2134C69.3765 28.6066 68.8846 28.1147 68.2778 28.1147H56.4404C55.8337 28.1147 55.3418 28.6066 55.3418 29.2134V68.0669H52.8041V35.1324C52.8041 34.5256 52.3122 34.0337 51.7055 34.0337H39.8676C39.2609 34.0337 38.769 34.5256 38.769 35.1324V68.0669H36.2312V44.0108C36.2312 43.4041 35.7393 42.9122 35.1325 42.9122H23.2947C22.6879 42.9122 22.196 43.4041 22.196 44.0108V68.0669H19.6582V51.1135C19.6582 50.5068 19.1663 50.0149 18.5596 50.0149H6.72158C6.11484 50.0149 5.62295 50.5068 5.62295 51.1135V68.0669H1.09863C0.491894 68.0669 0 68.5588 0 69.1655V73.9014C0 74.5081 0.491894 75 1.09863 75H22.9639C23.5706 75 24.0625 74.5081 24.0625 73.9014C24.0625 73.2946 23.5706 72.8027 22.9639 72.8027H2.19727V70.2642H72.8027V72.8027H18.0908C17.4841 72.8027 16.9922 73.2946 16.9922 73.9014C16.9922 74.5081 17.4841 75 18.0908 75H73.9014C74.5081 75 75 74.5081 75 73.9014V69.1655C75 68.5588 74.5081 68.0669 73.9014 68.0669ZM40.9663 36.231H50.6068V68.0669H40.9663V36.231ZM24.3932 45.1094H34.0337V68.0669H24.3932V45.1094ZM7.82022 52.2122H17.4608V68.0669H7.82022V52.2122Z" fill="#3577F6"/>
<path d="M6.57422 40.0781H23.2939C24.264 40.0781 25.1956 39.6684 25.8499 38.9543L39.4686 24.0967H48.7456C49.6718 24.0967 50.5424 23.7363 51.1967 23.082L62.4448 11.8339V15.3045C62.4448 15.9113 62.9367 16.4032 63.5435 16.4032H68.2778C68.8846 16.4032 69.3765 15.9113 69.3765 15.3045V3.46582C69.3765 1.55479 67.8217 0 65.9106 0H54.0732C53.4665 0 52.9746 0.491894 52.9746 1.09863V5.83447C52.9746 6.44121 53.4665 6.93311 54.0732 6.93311H57.5426L47.3106 17.165H37.9438C36.9749 17.165 36.0437 17.5748 35.3895 18.2887L21.7692 33.1465H18.7397C18.133 33.1465 17.6411 33.6384 17.6411 34.2451C17.6411 34.8519 18.133 35.3438 18.7397 35.3438H22.2524C22.5604 35.3438 22.8542 35.2146 23.0622 34.9875L37.0091 19.7735C37.2485 19.5123 37.5891 19.3625 37.9437 19.3625H47.7655C48.0568 19.3625 48.3363 19.2467 48.5423 19.0406L60.9715 6.61143C61.2857 6.29722 61.3797 5.82466 61.2097 5.41421C61.0396 5.00361 60.639 4.73599 60.1947 4.73599H55.1717V2.19727H65.9105C66.61 2.19727 67.1791 2.76636 67.1791 3.46582V14.2061H64.6419V9.18164C64.6419 8.73735 64.3743 8.33672 63.9637 8.16665C63.5534 7.99688 63.0806 8.09062 62.7665 8.40483L49.6431 21.5282C49.4038 21.7676 49.0849 21.8994 48.7456 21.8994H38.9854C38.6773 21.8994 38.3836 22.0286 38.1754 22.2557L24.23 37.4697C23.9906 37.731 23.6495 37.8809 23.2939 37.8809H7.67285V35.3438H18.6128C19.2195 35.3438 19.7114 34.8519 19.7114 34.2451C19.7114 33.6384 19.2195 33.1465 18.6128 33.1465H6.57422C5.96748 33.1465 5.47559 33.6384 5.47559 34.2451V38.9795C5.47559 39.5862 5.96748 40.0781 6.57422 40.0781Z" fill="#3577F6"/>
</svg>
