<svg width="75" height="75" viewBox="0 0 75 75" fill="none" xmlns="http://www.w3.org/2000/svg">
<g clip-path="url(#clip0_1_195)">
<path d="M73.3363 12.6475L38.3488 0.147474C37.7963 -0.0475304 37.1937 -0.0475304 36.6413 0.147474L1.6625 12.6475C0.671101 13.0048 0.0102539 13.9455 0.0102539 14.9993C0.0102539 16.0532 0.671101 16.9939 1.6625 17.3512L18.75 23.4562V31.25C18.75 36.11 35.5813 36.25 37.5 36.25C39.4188 36.25 56.25 36.11 56.25 31.25V23.4562L60 22.125V25C60 26.3807 61.1193 27.5 62.5 27.5H65C66.3807 27.5 67.5 26.3807 67.5 25V21.25C67.4963 20.6711 67.3567 20.1013 67.0925 19.5862L73.3425 17.3512C74.3339 16.9939 74.9948 16.0532 74.9948 14.9993C74.9948 13.9455 74.3339 13.0048 73.3425 12.6475H73.3363ZM53.75 28.5C48.9888 26.3325 38.9563 26.25 37.5 26.25C36.0438 26.25 26.0113 26.3325 21.25 28.5V17.61C22 16.6475 27.895 15 37.5 15C47.105 15 53 16.6475 53.75 17.61V28.5ZM37.5 33.75C28.25 33.75 22.4413 32.2225 21.355 31.25C22.4413 30.2775 28.2525 28.75 37.5 28.75C46.7475 28.75 52.5588 30.2775 53.645 31.25C52.5588 32.2225 46.75 33.75 37.5 33.75ZM60.5863 19.2562L56.25 20.8025V17.5C56.25 12.64 39.4188 12.5 37.5 12.5C35.5813 12.5 18.75 12.64 18.75 17.5V20.8012L2.5 15L37.5175 2.49997L62.5 11.4275V17.73C61.7096 18.0109 61.0359 18.5481 60.5863 19.2562ZM65 25H62.5V21.25C62.5 20.5596 63.0597 20 63.75 20C64.4404 20 65 20.5596 65 21.25V25ZM65 17.68V12.3212L72.5 15L65 17.68Z" fill="#0ED984"/>
<path d="M71.25 38.7499C71.175 38.7497 71.1001 38.7564 71.0262 38.7699C59.9354 40.4942 48.7238 41.3235 37.5 41.2499C26.2762 41.3235 15.0646 40.4942 3.97375 38.7699C3.89982 38.7573 3.825 38.7506 3.75 38.7499C2.875 38.7499 0 39.7411 0 52.4999C0 65.2586 2.875 66.2499 3.75 66.2499C3.82506 66.2483 3.89988 66.2408 3.97375 66.2274C12.4959 64.8775 21.098 64.0933 29.7237 63.8799L27.2837 69.7324C26.9089 70.6695 27.1368 71.7402 27.8608 72.4434C28.5848 73.1466 29.6617 73.3432 30.5875 72.9411L31.5438 72.5324L31.9575 73.4836C32.3483 74.406 33.2545 75.0037 34.2563 74.9999H34.2875C35.2967 74.992 36.2015 74.376 36.5788 73.4399L38.75 68.2424L40.9137 73.4199C41.2877 74.3648 42.1963 74.9894 43.2125 74.9999H43.25C44.245 75.004 45.1462 74.4136 45.54 73.4999L45.9575 72.5411L46.8988 72.9449C47.8285 73.3553 48.9144 73.1598 49.6426 72.4508C50.3709 71.7418 50.5954 70.6616 50.21 69.7211L47.8175 63.9836C55.5945 64.259 63.3474 65.0104 71.0325 66.2336C71.1044 66.2455 71.1772 66.251 71.25 66.2499C72.125 66.2499 75 65.2586 75 52.4999C75 39.7411 72.125 38.7499 71.25 38.7499ZM41.5 43.7124C42.0191 45.6211 42.3214 47.5822 42.4013 49.5586C39.567 48.2407 36.2428 48.5497 33.7 50.3674C33.6361 48.1227 33.3484 45.89 32.8413 43.7024C34.3554 43.7341 35.9083 43.7499 37.5 43.7499C38.8662 43.7499 40.1925 43.7349 41.5 43.7124ZM38.75 63.7499C35.2982 63.7499 32.5 60.9517 32.5 57.4999C32.5 54.0481 35.2982 51.2499 38.75 51.2499C42.2018 51.2499 45 54.0481 45 57.4999C44.9959 60.95 42.2001 63.7458 38.75 63.7499ZM3.75 41.8749C4.70777 45.3317 5.12934 48.9151 5 52.4999C5.12934 56.0846 4.70777 59.668 3.75 63.1249C2.79223 59.668 2.37066 56.0846 2.5 52.4999C2.37066 48.9151 2.79223 45.3317 3.75 41.8749ZM6.275 63.3374C6.95875 61.3549 7.5 58.0374 7.5 52.4999C7.5 46.9624 6.95875 43.6449 6.27375 41.6599C14.217 42.7569 22.2144 43.4175 30.23 43.6386C30.9797 46.5307 31.323 49.5131 31.25 52.4999C31.25 52.6811 31.25 52.8536 31.2425 53.0274C29.7425 55.5169 29.5913 58.5928 30.84 61.2174L30.785 61.3499C22.584 61.5509 14.401 62.2153 6.275 63.3399V63.3374ZM34.2588 72.4999L33.3462 70.3999C33.0718 69.7693 32.3396 69.4789 31.7075 69.7499L29.6038 70.6799L32.535 63.6524C33.7384 64.8718 35.2737 65.7108 36.95 66.0649L34.2588 72.4999ZM45.7925 69.7499C45.1604 69.4789 44.4282 69.7693 44.1538 70.3999L43.2288 72.4786L40.5487 66.0624C42.2263 65.7081 43.7629 64.8688 44.9675 63.6486L47.8925 70.6486L45.7925 69.7499ZM71 63.6874C62.9691 62.4514 54.8712 61.7 46.75 61.4374L46.6612 61.2224C48.2333 57.9098 47.5593 53.9672 44.9762 51.3649C44.9666 48.7726 44.6672 46.1895 44.0837 43.6636C53.0972 43.4618 62.0882 42.676 71 41.3111C71.58 42.2961 72.5 46.1924 72.5 52.4999C72.5 58.8074 71.5737 62.7024 71 63.6874Z" fill="#0ED984"/>
</g>
<defs>
<clipPath id="clip0_1_195">
<rect width="75" height="75" fill="white"/>
</clipPath>
</defs>
</svg>
