<svg width="75" height="75" viewBox="0 0 75 75" fill="none" xmlns="http://www.w3.org/2000/svg">
<path d="M69.1406 55.0781C69.1406 47.8137 64.391 41.6461 57.8367 39.4945C60.4043 37.8211 62.1094 34.9277 62.1094 31.6406C62.1094 26.4715 57.9035 22.2656 52.7344 22.2656C52.2387 22.2656 51.7559 22.316 51.2812 22.3898C51.3469 22.2 51.4301 22.0148 51.4875 21.8227L53.9062 21.2531V13.9617L51.4898 13.3922C51.2062 12.4406 50.8254 11.5219 50.3508 10.6465L51.6574 8.53359L46.5445 3.41953L44.4316 4.72734C43.5574 4.25508 42.6387 3.87305 41.6848 3.58828L41.1164 1.17188H33.8836L33.3152 3.58828C32.3625 3.87305 31.4426 4.25391 30.5684 4.72734L28.4555 3.41953L23.3426 8.53359L24.6492 10.6465C24.1758 11.5219 23.7949 12.4406 23.5102 13.3922L21.0938 13.9629V21.2555L23.5113 21.825C23.5688 22.016 23.652 22.2012 23.7176 22.391C23.2441 22.316 22.7613 22.2656 22.2656 22.2656C17.0965 22.2656 12.8906 26.4715 12.8906 31.6406C12.8906 34.9277 14.5957 37.8211 17.1633 39.4945C10.609 41.6461 5.85938 47.8137 5.85938 55.0781V59.7656H24.0551C22.1941 62.4258 21.0938 65.6555 21.0938 69.1406V73.8281H53.9062V69.1406C53.9062 65.6555 52.8059 62.4258 50.9449 59.7656H69.1406V55.0781ZM55.0781 42.1875C55.0781 44.093 54.0047 45.7031 52.7344 45.7031C51.4641 45.7031 50.3906 44.093 50.3906 42.1875C50.3906 41.8547 50.4375 41.5254 50.5078 41.1984C51.2414 41.0812 51.9844 41.0156 52.7344 41.0156C53.4949 41.0156 54.2367 41.093 54.9645 41.2102C55.0324 41.5336 55.0781 41.8594 55.0781 42.1875ZM37.5 52.7344C33.6223 52.7344 30.4688 49.5809 30.4688 45.7031C30.4688 41.8254 33.6223 38.6719 37.5 38.6719C41.3777 38.6719 44.5312 41.8254 44.5312 45.7031C44.5312 49.5809 41.3777 52.7344 37.5 52.7344ZM28.3781 42.4195C28.4777 42.4676 28.5785 42.5121 28.677 42.5625C28.3266 43.5469 28.125 44.6004 28.125 45.7031C28.125 46.1707 28.1707 46.6277 28.2375 47.0777L26.6766 50.5125L23.8359 46.9629L28.3781 42.4195ZM37.5 36.3281C34.268 36.3281 31.4133 37.9723 29.727 40.4684C28.9676 40.0805 28.1789 39.7582 27.3703 39.4934C29.9367 37.8187 31.6406 34.9266 31.6406 31.6406C31.6406 31.4227 31.623 31.2094 31.6078 30.9961C32.1633 31.241 32.7328 31.4531 33.3152 31.6277L33.8836 34.0441H41.1164L41.6848 31.6277C42.2672 31.4531 42.8367 31.241 43.3922 30.9961C43.377 31.2094 43.3594 31.4227 43.3594 31.6406C43.3594 34.9277 45.0633 37.8187 47.6297 39.4934C46.8223 39.757 46.0336 40.0816 45.2742 40.4695C43.5879 37.9734 40.732 36.3281 37.5 36.3281ZM59.7656 31.6406C59.7656 35.5184 56.6121 38.6719 52.7344 38.6719C48.8566 38.6719 45.7031 35.5184 45.7031 31.6406C45.7031 27.7629 48.8566 24.6094 52.7344 24.6094C56.6121 24.6094 59.7656 27.7629 59.7656 31.6406ZM25.5973 20.5641L25.4262 19.8668L23.4375 19.398V15.8168L25.425 15.3492L25.5961 14.652C25.8914 13.4473 26.3672 12.2953 27.0141 11.2312L27.3855 10.6184L26.3098 8.88047L28.8 6.39023L30.5379 7.46602L31.1508 7.09336C32.2125 6.44883 33.3645 5.9707 34.5727 5.67539L35.2699 5.5043L35.7398 3.51562H39.2602L39.7277 5.50313L40.425 5.67422C41.6332 5.9707 42.7852 6.44766 43.8469 7.09219L44.4598 7.46484L46.1977 6.38906L48.6879 8.8793L47.6133 10.6184L47.9848 11.2312C48.6316 12.2953 49.1074 13.4473 49.4027 14.652L49.5738 15.3492L51.5625 15.818V19.3992L49.575 19.8668L49.4039 20.5641C49.1672 21.5332 48.7828 22.4777 48.2965 23.3859C46.4367 24.3902 44.9531 26.0051 44.1152 27.9598L43.848 28.1215C42.7863 28.766 41.6344 29.2441 40.4262 29.5395L39.7289 29.7105L39.2613 31.698H35.741L35.2734 29.7094L34.5762 29.5383C33.3703 29.243 32.2184 28.766 31.1543 28.1203L30.8871 27.9586C30.0492 26.0027 28.5656 24.3879 26.7059 23.3836C26.2184 22.4777 25.834 21.5332 25.5973 20.5641ZM15.2344 31.6406C15.2344 27.7629 18.3879 24.6094 22.2656 24.6094C26.1434 24.6094 29.2969 27.7629 29.2969 31.6406C29.2969 35.5184 26.1434 38.6719 22.2656 38.6719C18.3879 38.6719 15.2344 35.5184 15.2344 31.6406ZM25.9699 41.5137L22.2656 45.218L18.5719 41.5242C19.7508 41.202 20.9859 41.0156 22.2656 41.0156C23.5254 41.0156 24.7699 41.1867 25.9699 41.5137ZM20.6953 46.9617L17.8547 50.5113L14.5828 43.3137C15.0867 42.9832 15.6164 42.6926 16.1625 42.4277L20.6953 46.9617ZM8.20312 55.0781C8.20312 51.0258 9.93633 47.3789 12.6891 44.8102L17.3016 54.9574L22.2656 48.7512L27.2297 54.9574L29.3426 50.3086C30.0867 51.6211 31.1367 52.7367 32.3965 53.5582C29.9824 54.3504 27.8156 55.6852 26.0391 57.423H14.0625V50.3918H11.7188V57.423H8.20312V55.0781ZM37.5 55.0781C39.5367 55.0781 41.468 55.5223 43.2176 56.3051L37.5 69.6738L31.7824 56.3039C33.532 55.5223 35.4633 55.0781 37.5 55.0781ZM23.4375 69.1406C23.4375 64.2633 25.9348 59.9613 29.7164 57.4383L35.7234 71.4844H29.2969V64.4531H26.9531V71.4844H23.4375V69.1406ZM51.5625 71.4844H48.0469V64.4531H45.7031V71.4844H39.2766L45.2836 57.4383C49.0652 59.9613 51.5625 64.2633 51.5625 69.1406V71.4844ZM66.7969 57.4219H63.2812V50.3906H60.9375V57.4219H48.9598C47.1832 55.684 45.0152 54.3492 42.6023 53.557C45.1699 51.8836 46.875 48.9902 46.875 45.7031C46.875 44.6016 46.6734 43.548 46.323 42.5648C46.8914 42.273 47.4785 42.0199 48.0797 41.8102C48.0727 41.9355 48.0469 42.0609 48.0469 42.1875C48.0469 45.4184 50.1492 48.0469 52.7344 48.0469C55.3195 48.0469 57.4219 45.4184 57.4219 42.1875C57.4219 42.0656 57.3973 41.9461 57.3902 41.8242C62.8594 43.752 66.7969 48.9574 66.7969 55.0781V57.4219Z" fill="#D72DF3"/>
<path d="M37.5 22.2656C40.0852 22.2656 42.1875 20.1633 42.1875 17.5781C42.1875 14.993 40.0852 12.8906 37.5 12.8906C34.9148 12.8906 32.8125 14.993 32.8125 17.5781C32.8125 20.1633 34.9148 22.2656 37.5 22.2656ZM37.5 15.2344C38.7926 15.2344 39.8438 16.2855 39.8438 17.5781C39.8438 18.8707 38.7926 19.9219 37.5 19.9219C36.2074 19.9219 35.1562 18.8707 35.1562 17.5781C35.1562 16.2855 36.2074 15.2344 37.5 15.2344Z" fill="#D72DF3"/>
<path d="M37.5 26.9531C42.6691 26.9531 46.875 22.7473 46.875 17.5781C46.875 12.409 42.6691 8.20312 37.5 8.20312C32.3309 8.20312 28.125 12.409 28.125 17.5781C28.125 22.7473 32.3309 26.9531 37.5 26.9531ZM37.5 10.5469C41.3777 10.5469 44.5312 13.7004 44.5312 17.5781C44.5312 21.4559 41.3777 24.6094 37.5 24.6094C33.6223 24.6094 30.4688 21.4559 30.4688 17.5781C30.4688 13.7004 33.6223 10.5469 37.5 10.5469Z" fill="#D72DF3"/>
</svg>
