<svg width="30" height="30" viewBox="0 0 30 30" fill="none" xmlns="http://www.w3.org/2000/svg">
<path d="M27.6563 16.2938V11.6859L28.8891 10.6734C28.9469 10.6282 28.993 10.5696 29.0232 10.5026C29.0534 10.4357 29.0669 10.3624 29.0625 10.2891C29.0576 10.2154 29.036 10.1439 28.9995 10.0797C28.9629 10.0156 28.9124 9.96058 28.8516 9.91876L15.2578 1.01251C15.1805 0.964256 15.0912 0.938675 15 0.938675C14.9089 0.938675 14.8195 0.964256 14.7422 1.01251L1.14844 9.91876C1.08764 9.96058 1.03708 10.0156 1.00055 10.0797C0.964019 10.1439 0.942468 10.2154 0.937507 10.2891C0.933146 10.3624 0.946651 10.4357 0.976861 10.5026C1.00707 10.5696 1.05308 10.6282 1.11094 10.6734L6.09376 14.7516V15.0188C5.46559 16.3532 5.1453 17.8116 5.15655 19.2865C5.1678 20.7613 5.5103 22.2147 6.15875 23.5394C6.80719 24.864 7.74501 26.026 8.9029 26.9396C10.0608 27.8531 11.4091 28.4947 12.8483 28.8171C14.2875 29.1395 15.7808 29.1343 17.2177 28.8021C18.6546 28.4698 19.9986 27.8189 21.1501 26.8974C22.3017 25.976 23.2315 24.8075 23.8708 23.4785C24.5102 22.1494 24.8427 20.6936 24.8438 19.2188C24.8475 17.7665 24.5272 16.3316 23.9063 15.0188V14.7516L26.7188 12.45V16.2938L25.5703 18.5906C25.4632 18.8052 25.4127 19.0437 25.4237 19.2833C25.4347 19.5229 25.5069 19.7557 25.6332 19.9596C25.7596 20.1635 25.936 20.3317 26.1457 20.4481C26.3554 20.5646 26.5914 20.6255 26.8313 20.625H27.5438C27.7836 20.6255 28.0196 20.5646 28.2293 20.4481C28.439 20.3317 28.6154 20.1635 28.7418 19.9596C28.8682 19.7557 28.9403 19.5229 28.9513 19.2833C28.9623 19.0437 28.9118 18.8052 28.8047 18.5906L27.6563 16.2938ZM11.2594 18.75C11.2752 16.8755 11.6113 15.0175 12.2531 13.2563C13.1659 13.166 14.0828 13.1222 15 13.125C15.9173 13.1222 16.8341 13.166 17.7469 13.2563C18.3888 15.0175 18.7248 16.8755 18.7406 18.75H11.2594ZM18.7406 19.6875C18.7207 21.1326 18.524 22.5699 18.1547 23.9672C16.1109 23.2609 13.8892 23.2609 11.8453 23.9672C11.4761 22.5699 11.2793 21.1326 11.2594 19.6875H18.7406ZM15 12.1875C11.7938 12.1875 8.57345 12.6984 7.03126 13.6781V10.7813C7.03126 10.1438 9.84376 8.90626 15 8.90626C20.1563 8.90626 22.9688 10.1438 22.9688 10.7813V13.6781C21.4266 12.6984 18.2063 12.1875 15 12.1875ZM11.2031 13.3828C10.6391 15.1169 10.3419 16.9266 10.3219 18.75H6.10782C6.16576 17.5634 6.46396 16.4008 6.98438 15.3328C7.0159 15.2687 7.03196 15.198 7.03126 15.1266V15C7.03126 14.5453 8.48438 13.7813 11.2031 13.3828ZM6.1172 19.6875H10.3219C10.3441 21.2494 10.563 22.8022 10.9734 24.3094C10.2063 24.6556 9.48644 25.0983 8.83126 25.6266C7.20316 24.0648 6.23243 21.9406 6.1172 19.6875ZM9.55313 26.25C10.0806 25.8383 10.653 25.4876 11.2594 25.2047C11.5763 26.1496 12.0588 27.0305 12.6844 27.8063C11.5475 27.501 10.4829 26.9719 9.55313 26.25ZM15 28.125C13.95 28.125 12.8578 26.9156 12.1266 24.8625C13.9871 24.2125 16.013 24.2125 17.8735 24.8625C17.1422 26.9156 16.05 28.125 15 28.125ZM17.3156 27.8063C17.9412 27.0305 18.4238 26.1496 18.7406 25.2047C19.347 25.4876 19.9194 25.8383 20.4469 26.25C19.5171 26.9719 18.4525 27.501 17.3156 27.8063ZM21.1688 25.6266C20.5136 25.0983 19.7937 24.6556 19.0266 24.3094C19.437 22.8022 19.6559 21.2494 19.6781 19.6875H23.8828C23.7676 21.9406 22.7969 24.0648 21.1688 25.6266ZM19.6781 18.75C19.6581 16.9266 19.3609 15.1169 18.7969 13.3828C21.5156 13.7813 22.9688 14.5453 22.9688 15V15.1266C22.9681 15.198 22.9841 15.2687 23.0156 15.3328C23.5361 16.4008 23.8343 17.5634 23.8922 18.75H19.6781ZM23.9063 13.5422V10.7813C23.9063 8.93438 19.425 7.96876 15 7.96876C10.575 7.96876 6.09376 8.93438 6.09376 10.7813V13.5422L2.19844 10.3547L15 1.96876L27.8016 10.3547L23.9063 13.5422ZM27.9422 19.4672C27.9012 19.5358 27.8427 19.5924 27.7727 19.6311C27.7027 19.6698 27.6237 19.6892 27.5438 19.6875H26.8313C26.7513 19.6892 26.6723 19.6698 26.6023 19.6311C26.5324 19.5924 26.4739 19.5358 26.4328 19.4672C26.3901 19.399 26.3655 19.3209 26.3614 19.2406C26.3573 19.1602 26.3738 19.08 26.4094 19.0078L27.1875 17.4563L27.9656 19.0078C28.0012 19.08 28.0177 19.1602 28.0136 19.2406C28.0095 19.3209 27.9849 19.399 27.9422 19.4672Z" fill="white"/>
</svg>
