<svg width="25" height="25" viewBox="0 0 25 25" fill="none" xmlns="http://www.w3.org/2000/svg">
<g clip-path="url(#clip0_1_62)">
<path d="M23.0461 13.5786V9.73878L24.0734 8.89503C24.1217 8.85732 24.16 8.80847 24.1852 8.75268C24.2103 8.69689 24.2216 8.63582 24.218 8.57471C24.2138 8.51335 24.1959 8.45372 24.1654 8.40028C24.135 8.34684 24.0929 8.30097 24.0422 8.26612L12.7141 0.844243C12.6496 0.804033 12.5752 0.782715 12.4992 0.782715C12.4232 0.782715 12.3488 0.804033 12.2844 0.844243L0.956233 8.26612C0.905561 8.30097 0.863427 8.34684 0.832986 8.40028C0.802545 8.45372 0.784586 8.51335 0.780452 8.57471C0.776818 8.63582 0.788072 8.69689 0.813247 8.75268C0.838422 8.80847 0.876766 8.85732 0.924983 8.89503L5.07733 12.2935V12.5161C4.55386 13.6281 4.28695 14.8435 4.29632 16.0725C4.30569 17.3015 4.59111 18.5127 5.13149 19.6166C5.67186 20.7205 6.45337 21.6889 7.41828 22.4501C8.38318 23.2114 9.50682 23.7461 10.7061 24.0147C11.9055 24.2834 13.1498 24.2791 14.3473 24.0022C15.5447 23.7253 16.6647 23.1829 17.6243 22.415C18.584 21.6471 19.3588 20.6734 19.8916 19.5659C20.4243 18.4583 20.7014 17.2452 20.7023 16.0161C20.7055 14.8059 20.4386 13.6102 19.9211 12.5161V12.2935L22.2648 10.3755V13.5786L21.3078 15.4927C21.2185 15.6715 21.1765 15.8702 21.1856 16.0699C21.1948 16.2696 21.2549 16.4636 21.3602 16.6335C21.4655 16.8034 21.6125 16.9435 21.7873 17.0406C21.962 17.1376 22.1587 17.1884 22.3586 17.188H22.9523C23.1522 17.1884 23.3489 17.1376 23.5236 17.0406C23.6984 16.9435 23.8454 16.8034 23.9507 16.6335C24.056 16.4636 24.1161 16.2696 24.1253 16.0699C24.1345 15.8702 24.0924 15.6715 24.0031 15.4927L23.0461 13.5786ZM9.38202 15.6255C9.39518 14.0634 9.67526 12.5151 10.2101 11.0474C10.9708 10.9721 11.7348 10.9356 12.4992 10.938C13.2636 10.9356 14.0276 10.9721 14.7883 11.0474C15.3232 12.5151 15.6032 14.0634 15.6164 15.6255H9.38202ZM15.6164 16.4067C15.5998 17.611 15.4358 18.8087 15.1281 19.9732C13.4249 19.3846 11.5735 19.3846 9.8703 19.9732C9.56259 18.8087 9.39861 17.611 9.38202 16.4067H15.6164ZM12.4992 10.1567C9.82733 10.1567 7.14374 10.5825 5.85858 11.3989V8.98487C5.85858 8.45362 8.20233 7.42237 12.4992 7.42237C16.7961 7.42237 19.1398 8.45362 19.1398 8.98487V11.3989C17.8547 10.5825 15.1711 10.1567 12.4992 10.1567ZM9.33514 11.1528C8.86511 12.5979 8.61749 14.106 8.60077 15.6255H5.08905C5.13733 14.6366 5.38583 13.6678 5.81952 12.7778C5.84578 12.7244 5.85916 12.6655 5.85858 12.606V12.5005C5.85858 12.1216 7.06952 11.4849 9.33514 11.1528ZM5.09686 16.4067H8.60077C8.61927 17.7083 8.80169 19.0024 9.14374 20.2583C8.50445 20.5468 7.90457 20.9157 7.35858 21.356C6.00183 20.0545 5.19289 18.2843 5.09686 16.4067ZM7.96014 21.8755C8.39968 21.5324 8.87668 21.2401 9.38202 21.0044C9.64608 21.7918 10.0482 22.5259 10.5695 23.1724C9.6221 22.918 8.73498 22.4771 7.96014 21.8755ZM12.4992 23.438C11.6242 23.438 10.7141 22.4302 10.1047 20.7192C11.6551 20.1776 13.3433 20.1776 14.8937 20.7192C14.2844 22.4302 13.3742 23.438 12.4992 23.438ZM14.4289 23.1724C14.9502 22.5259 15.3523 21.7918 15.6164 21.0044C16.1217 21.2401 16.5987 21.5324 17.0383 21.8755C16.2634 22.4771 15.3763 22.918 14.4289 23.1724ZM17.6398 21.356C17.0938 20.9157 16.494 20.5468 15.8547 20.2583C16.1967 19.0024 16.3791 17.7083 16.3976 16.4067H19.9016C19.8055 18.2843 18.9966 20.0545 17.6398 21.356ZM16.3976 15.6255C16.3809 14.106 16.1333 12.5979 15.6633 11.1528C17.9289 11.4849 19.1398 12.1216 19.1398 12.5005V12.606C19.1393 12.6655 19.1526 12.7244 19.1789 12.7778C19.6126 13.6678 19.8611 14.6366 19.9094 15.6255H16.3976ZM19.9211 11.2857V8.98487C19.9211 7.44581 16.1867 6.64112 12.4992 6.64112C8.81171 6.64112 5.07733 7.44581 5.07733 8.98487V11.2857L1.83123 8.6294L12.4992 1.64112L23.1672 8.6294L19.9211 11.2857ZM23.2844 16.2232C23.2502 16.2803 23.2014 16.3275 23.1431 16.3597C23.0848 16.392 23.019 16.4082 22.9523 16.4067H22.3586C22.292 16.4082 22.2261 16.392 22.1678 16.3597C22.1095 16.3275 22.0608 16.2803 22.0266 16.2232C21.991 16.1663 21.9705 16.1013 21.9671 16.0343C21.9636 15.9673 21.9774 15.9005 22.007 15.8403L22.6555 14.5474L23.3039 15.8403C23.3335 15.9005 23.3473 15.9673 23.3439 16.0343C23.3404 16.1013 23.32 16.1663 23.2844 16.2232Z" fill="#D72DF3"/>
</g>
<defs>
<clipPath id="clip0_1_62">
<rect width="25" height="25" fill="white"/>
</clipPath>
</defs>
</svg>
