<svg width="25" height="25" viewBox="0 0 25 25" fill="none" xmlns="http://www.w3.org/2000/svg">
<path d="M23.0461 13.5787V9.73884L24.0734 8.89509C24.1216 8.85738 24.16 8.80853 24.1851 8.75274C24.2103 8.69695 24.2216 8.63588 24.2179 8.57477C24.2138 8.51341 24.1958 8.45378 24.1654 8.40034C24.135 8.3469 24.0928 8.30103 24.0422 8.26618L12.714 0.844304C12.6496 0.804094 12.5751 0.782776 12.4992 0.782776C12.4232 0.782776 12.3488 0.804094 12.2843 0.844304L0.956203 8.26618C0.90553 8.30103 0.863396 8.3469 0.832956 8.40034C0.802515 8.45378 0.784556 8.51341 0.780422 8.57477C0.776788 8.63588 0.788042 8.69695 0.813217 8.75274C0.838392 8.80853 0.876735 8.85738 0.924953 8.89509L5.0773 12.2935V12.5162C4.55383 13.6282 4.28692 14.8436 4.29629 16.0726C4.30566 17.3016 4.59108 18.5128 5.13146 19.6167C5.67183 20.7206 6.45334 21.6889 7.41825 22.4502C8.38315 23.2114 9.50679 23.7461 10.7061 24.0148C11.9054 24.2834 13.1498 24.2792 14.3473 24.0023C15.5447 23.7254 16.6646 23.183 17.6243 22.4151C18.5839 21.6472 19.3588 20.6735 19.8915 19.5659C20.4243 18.4584 20.7014 17.2452 20.7023 16.0162C20.7054 14.8059 20.4385 13.6102 19.9211 12.5162V12.2935L22.2648 10.3756V13.5787L21.3078 15.4927C21.2185 15.6716 21.1764 15.8703 21.1856 16.07C21.1948 16.2696 21.2549 16.4637 21.3602 16.6336C21.4655 16.8035 21.6125 16.9436 21.7873 17.0407C21.962 17.1377 22.1587 17.1884 22.3586 17.1881H22.9523C23.1522 17.1884 23.3489 17.1377 23.5236 17.0407C23.6984 16.9436 23.8454 16.8035 23.9507 16.6336C24.056 16.4637 24.1161 16.2696 24.1253 16.07C24.1344 15.8703 24.0924 15.6716 24.0031 15.4927L23.0461 13.5787ZM9.38199 15.6256C9.39515 14.0635 9.67523 12.5151 10.2101 11.0474C10.9708 10.9722 11.7348 10.9357 12.4992 10.9381C13.2636 10.9357 14.0276 10.9722 14.7882 11.0474C15.3231 12.5151 15.6032 14.0635 15.6164 15.6256H9.38199ZM15.6164 16.4068C15.5998 17.6111 15.4358 18.8088 15.1281 19.9732C13.4249 19.3847 11.5735 19.3847 9.87027 19.9732C9.56256 18.8088 9.39858 17.6111 9.38199 16.4068H15.6164ZM12.4992 10.1568C9.8273 10.1568 7.14371 10.5826 5.85855 11.399V8.98493C5.85855 8.45368 8.2023 7.42243 12.4992 7.42243C16.7961 7.42243 19.1398 8.45368 19.1398 8.98493V11.399C17.8546 10.5826 15.1711 10.1568 12.4992 10.1568ZM9.33511 11.1529C8.86508 12.598 8.61746 14.1061 8.60074 15.6256H5.08902C5.1373 14.6367 5.3858 13.6679 5.81949 12.7779C5.84575 12.7244 5.85913 12.6656 5.85855 12.606V12.5006C5.85855 12.1216 7.06949 11.4849 9.33511 11.1529ZM5.09683 16.4068H8.60074C8.61924 17.7084 8.80166 19.0024 9.14371 20.2584C8.50442 20.5469 7.90454 20.9158 7.35855 21.356C6.0018 20.0546 5.19286 18.2844 5.09683 16.4068ZM7.96011 21.8756C8.39965 21.5324 8.87665 21.2402 9.38199 21.0045C9.64605 21.7919 10.0482 22.526 10.5695 23.1724C9.62207 22.9181 8.73495 22.4772 7.96011 21.8756ZM12.4992 23.4381C11.6242 23.4381 10.714 22.4302 10.1046 20.7193C11.6551 20.1776 13.3433 20.1776 14.8937 20.7193C14.2843 22.4302 13.3742 23.4381 12.4992 23.4381ZM14.4289 23.1724C14.9502 22.526 15.3523 21.7919 15.6164 21.0045C16.1217 21.2402 16.5987 21.5324 17.0382 21.8756C16.2634 22.4772 15.3763 22.9181 14.4289 23.1724ZM17.6398 21.356C17.0938 20.9158 16.4939 20.5469 15.8546 20.2584C16.1967 19.0024 16.3791 17.7084 16.3976 16.4068H19.9015C19.8055 18.2844 18.9966 20.0546 17.6398 21.356ZM16.3976 15.6256C16.3809 14.1061 16.1333 12.598 15.6632 11.1529C17.9289 11.4849 19.1398 12.1216 19.1398 12.5006V12.606C19.1392 12.6656 19.1526 12.7244 19.1789 12.7779C19.6126 13.6679 19.8611 14.6367 19.9093 15.6256H16.3976ZM19.9211 11.2857V8.98493C19.9211 7.44587 16.1867 6.64118 12.4992 6.64118C8.81168 6.64118 5.0773 7.44587 5.0773 8.98493V11.2857L1.8312 8.62946L12.4992 1.64118L23.1672 8.62946L19.9211 11.2857ZM23.2843 16.2232C23.2501 16.2804 23.2014 16.3275 23.1431 16.3598C23.0848 16.392 23.0189 16.4082 22.9523 16.4068H22.3586C22.2919 16.4082 22.2261 16.392 22.1678 16.3598C22.1095 16.3275 22.0607 16.2804 22.0265 16.2232C21.9909 16.1664 21.9705 16.1013 21.967 16.0343C21.9636 15.9673 21.9774 15.9006 22.007 15.8404L22.6554 14.5474L23.3039 15.8404C23.3335 15.9006 23.3472 15.9673 23.3438 16.0343C23.3404 16.1013 23.3199 16.1664 23.2843 16.2232Z" fill="#0ED984"/>
</svg>
